<svg width="70" height="70" viewBox="0 0 70 70" fill="none" xmlns="http://www.w3.org/2000/svg">
<path d="M32.6719 59.1092L42.3194 55.5978L25.8441 25.3413L32.6719 59.1092Z" fill="#2563EB"/>
<path d="M28.001 18.3889C28.001 15.5539 25.7028 13.2556 22.8677 13.2556C22.3108 13.2556 21.7746 13.3443 21.2725 13.5083C21.2149 13.5271 21.1577 13.5469 21.101 13.5677C21.0424 13.5892 20.9841 13.6118 20.9266 13.6353C20.9239 13.6364 20.9212 13.6373 20.9186 13.6384C20.6959 13.7299 20.4811 13.8365 20.2755 13.9571C19.7808 14.2471 19.3389 14.6176 18.968 15.0505C18.659 15.4111 18.3992 15.8152 18.1988 16.2521C17.9006 16.9027 17.7344 17.6264 17.7344 18.3889C17.7344 21.1874 19.9736 23.4628 22.7581 23.5211C22.7945 23.5219 22.8311 23.5223 22.8677 23.5223C22.9477 23.5223 23.0304 23.5203 23.1095 23.5167C23.1691 23.5139 23.2283 23.5101 23.2873 23.5053C23.7764 23.4657 24.246 23.3576 24.6867 23.1905C24.6915 23.1887 24.6962 23.1871 24.7009 23.1853C26.6307 22.4473 28.001 20.5781 28.001 18.3889Z" fill="#2563EB"/>
<path fill-rule="evenodd" clip-rule="evenodd" d="M48.9441 18.2365L50.4483 14.5439C49.9604 14.1092 49.3809 13.7611 48.7257 13.5324C48.5859 13.4836 48.4459 13.4356 48.3057 13.3883L47.7484 15.0261L47.5211 15.6934C47.371 15.6423 47.2206 15.5923 47.0699 15.5431L47.8256 13.2297C47.1492 13.0108 46.4687 12.8096 45.7846 12.6261L44.6567 16.7884C44.511 16.749 44.365 16.7104 44.2189 16.6728L45.2956 12.4981C44.5125 12.2981 43.725 12.1213 42.9341 11.9675L42.4681 14.3456C42.3125 14.3151 42.1568 14.2855 42.0009 14.2569L42.4374 11.8741C41.7387 11.747 41.0377 11.6379 40.3348 11.5468L40.1119 13.2498L39.776 15.8123C39.6265 15.7928 39.4768 15.7744 39.327 15.7567L39.8331 11.4848C39.0314 11.3907 38.2276 11.32 37.4228 11.2725L37.3253 12.9296L37.2804 13.6873C37.1222 13.678 36.9637 13.6695 36.8053 13.662L36.9184 11.2458C36.2096 11.2126 35.5001 11.1975 34.7907 11.2004L34.8093 15.4993C34.6584 15.4999 34.5073 15.5016 34.3564 15.5041L34.2852 11.2056C33.4789 11.2187 32.6729 11.2551 31.8682 11.3149L32.0506 13.7302C31.8926 13.7422 31.7344 13.7549 31.5764 13.7687L31.3643 11.3555C30.662 11.4162 29.9609 11.4947 29.2617 11.5911C31.0704 13.2933 32.1997 15.7093 32.1997 18.389C32.1997 19.5349 31.9933 20.6318 31.616 21.6449C36.2229 21.1527 40.9124 21.6796 45.3428 23.2258C48.0195 24.1599 50.947 22.7474 51.8812 20.0708C52.1693 19.245 52.2342 18.3954 52.1074 17.5879C52.0894 17.4731 52.0675 17.3592 52.0419 17.2463C51.8458 16.3835 51.429 15.5814 50.8324 14.9243L50.3667 16.0286L49.3621 18.4098C49.2231 18.3512 49.0837 18.2934 48.9441 18.2365Z" fill="#2563EB"/>
</svg>
